<svg width="110" height="110" viewBox="0 0 110 110" fill="none" xmlns="http://www.w3.org/2000/svg">
<g clip-path="url(#clip0_134_492)">
<path d="M55 110C85.3757 110 110 85.3757 110 55C110 24.6243 85.3757 0 55 0C24.6243 0 0 24.6243 0 55C0 85.3757 24.6243 110 55 110Z" fill="#09D270"/>
<path d="M77.5876 38.7519C76.6789 37.8519 75.2057 37.8519 74.2969 38.7519L46.4189 66.3603L35.7031 55.7482C34.7944 54.8482 33.3212 54.8483 32.4123 55.7482C31.5035 56.648 31.5035 58.107 32.4123 59.007L44.7735 71.2484C45.6819 72.1483 47.1562 72.1476 48.0643 71.2484L77.5876 42.0108C78.4964 41.1109 78.4963 39.6519 77.5876 38.7519Z" fill="white" stroke="white" stroke-width="4.88889"/>
</g>
<defs>
<clipPath id="clip0_134_492">
<rect width="110" height="110" fill="white"/>
</clipPath>
</defs>
</svg>
