<svg width="102" height="102" viewBox="0 0 102 102" fill="none" xmlns="http://www.w3.org/2000/svg">
<path d="M102 51C102 58.5742 100.346 65.7693 97.3755 72.2339C89.3258 89.8013 71.5861 102 51 102C30.4139 102 12.6742 89.8013 4.62446 72.2339C1.65405 65.7693 0 58.5742 0 51C0 22.8328 22.8328 0 51 0C79.1672 0 102 22.8328 102 51Z" fill="#F4F7FC"/>
<mask id="mask0_461_1723" style="mask-type:alpha" maskUnits="userSpaceOnUse" x="0" y="0" width="102" height="102">
<path d="M102 51C102 58.5742 100.346 65.7693 97.3755 72.2339C89.3258 89.8013 71.5861 102 51 102C30.4139 102 12.6742 89.8013 4.62446 72.2339C1.65405 65.7693 0 58.5742 0 51C0 22.8328 22.8328 0 51 0C79.1672 0 102 22.8328 102 51Z" fill="#F4F7FC"/>
</mask>
<g mask="url(#mask0_461_1723)">
<path d="M24.9688 64.3875H77.0312L86.0625 72.675H15.9375L24.9688 64.3875Z" fill="url(#paint0_linear_461_1723)"/>
<rect x="27.4126" y="33.1499" width="47.175" height="52.275" rx="3" fill="#E6EAF5"/>
<path d="M35.7 72.675H15.9375V137.063H86.0625V72.675H66.9375L64.3875 80.9625H38.25L35.7 72.675Z" fill="url(#paint1_linear_461_1723)"/>
</g>
<path d="M81.9498 5.1001C87.0379 5.1001 91.1626 9.22485 91.1626 14.313C91.1626 19.4011 87.0379 23.5259 81.9497 23.5259H75.966L71.6453 28.2278C71.1127 28.8074 70.1457 28.4305 70.1457 27.6434V22.8561C66.7694 21.4894 64.3877 18.1793 64.3877 14.313C64.3877 9.22485 68.5124 5.1001 73.6006 5.1001H81.9498Z" fill="url(#paint2_linear_461_1723)"/>
<circle cx="1.43951" cy="1.43951" r="1.43951" transform="matrix(-1 0 0 1 84.8291 12.8733)" fill="#F4F7FC"/>
<circle cx="1.43951" cy="1.43951" r="1.43951" transform="matrix(-1 0 0 1 79.0708 12.8733)" fill="#F4F7FC"/>
<circle cx="1.43951" cy="1.43951" r="1.43951" transform="matrix(-1 0 0 1 73.3125 12.8733)" fill="#F4F7FC"/>
<path d="M50.3778 64.6143C49.8474 64.6143 49.3986 64.4817 49.0314 64.2165C48.6642 63.9309 48.4806 63.4719 48.4806 62.8395C48.4806 62.5131 48.5418 62.1153 48.6642 61.6461C48.807 61.1565 49.0008 60.6465 49.2456 60.1161C49.4904 59.5653 49.7964 59.0247 50.1636 58.4943C50.5308 57.9435 50.9592 57.4335 51.4488 56.9643C51.816 56.5971 52.122 56.2605 52.3668 55.9545C52.632 55.6485 52.836 55.3629 52.9788 55.0977C53.1216 54.8121 53.2236 54.5367 53.2848 54.2715C53.346 53.9859 53.3766 53.6697 53.3766 53.3229C53.3766 52.4865 53.142 51.9255 52.6728 51.6399C52.2036 51.3339 51.6426 51.1911 50.9898 51.2115C50.337 51.2319 49.7556 51.3645 49.2456 51.6093C48.7356 51.8541 48.4806 52.2417 48.4806 52.7721C48.4806 53.3025 48.246 53.7003 47.7768 53.9655C47.3076 54.2307 46.8282 54.3633 46.3386 54.3633C45.7266 54.3429 45.288 54.2001 45.0228 53.9349C44.7576 53.6697 44.625 53.2821 44.625 52.7721C44.625 52.0581 44.7882 51.4053 45.1146 50.8137C45.4614 50.2017 45.9204 49.6815 46.4916 49.2531C47.0832 48.8247 47.7666 48.4881 48.5418 48.2433C49.3374 47.9781 50.184 47.8353 51.0816 47.8149C51.9588 47.7945 52.7748 47.9067 53.5296 48.1515C54.2844 48.3759 54.927 48.7329 55.4574 49.2225C56.0082 49.7121 56.4264 50.3139 56.712 51.0279C57.018 51.7419 57.1608 52.5681 57.1404 53.5065C57.12 54.3225 56.9568 55.0977 56.6508 55.8321C56.3652 56.5461 55.7838 57.3213 54.9066 58.1577C54.315 58.7289 53.8458 59.2287 53.499 59.6571C53.1522 60.0651 52.887 60.4425 52.7034 60.7893C52.5198 61.1157 52.3974 61.4421 52.3362 61.7685C52.2954 62.0949 52.275 62.4519 52.275 62.8395C52.275 63.4311 52.0914 63.8799 51.7242 64.1859C51.357 64.4715 50.9082 64.6143 50.3778 64.6143ZM50.3778 71.2239C50.9694 71.2239 51.459 71.0301 51.8466 70.6425C52.2546 70.2345 52.4586 69.7347 52.4586 69.1431C52.4586 68.5515 52.2546 68.0619 51.8466 67.6743C51.459 67.2663 50.9694 67.0623 50.3778 67.0623C49.7862 67.0623 49.2864 67.2663 48.8784 67.6743C48.4908 68.0619 48.297 68.5515 48.297 69.1431C48.297 69.7347 48.4908 70.2345 48.8784 70.6425C49.2864 71.0301 49.7862 71.2239 50.3778 71.2239Z" fill="url(#paint3_linear_461_1723)"/>
<defs>
<linearGradient id="paint0_linear_461_1723" x1="79.2834" y1="73.4231" x2="18.2912" y2="64.309" gradientUnits="userSpaceOnUse">
<stop stop-color="#9198AA"/>
<stop offset="1" stop-color="#B4B8C4"/>
</linearGradient>
<linearGradient id="paint1_linear_461_1723" x1="52.8351" y1="135.11" x2="52.7281" y2="91.7822" gradientUnits="userSpaceOnUse">
<stop stop-color="#D4D9E3"/>
<stop offset="1" stop-color="#D2D5DC"/>
</linearGradient>
<linearGradient id="paint2_linear_461_1723" x1="64.8254" y1="31.2675" x2="88.3215" y2="2.22387" gradientUnits="userSpaceOnUse">
<stop stop-color="#A7ABB6"/>
<stop offset="1" stop-color="#C7CCD7"/>
</linearGradient>
<linearGradient id="paint3_linear_461_1723" x1="54.1875" y1="75.5437" x2="33.5756" y2="72.7569" gradientUnits="userSpaceOnUse">
<stop stop-color="#9198AA"/>
<stop offset="1" stop-color="#B4B8C4"/>
</linearGradient>
</defs>
</svg>
